<?xml version="1.0" encoding="UTF-8"?>
<svg xmlns="http://www.w3.org/2000/svg" xmlns:xlink="http://www.w3.org/1999/xlink" width="512px" height="512px" viewBox="0 0 512 512" version="1.1">
<g id="surface1">
<path style=" stroke:none;fill-rule:nonzero;fill:rgb(100%,100%,100%);fill-opacity:1;" d="M 256.535156 427.734375 C 209.953125 427.734375 169.871094 410.929688 136.265625 377.335938 C 102.664062 343.734375 85.871094 303.640625 85.871094 257.070312 L 85.871094 233.070312 L 43.207031 275.734375 L 22.398438 254.929688 L 101.871094 175.464844 L 181.335938 254.929688 L 160.535156 275.734375 L 117.871094 233.070312 L 117.871094 257.070312 C 117.871094 295.109375 131.464844 327.734375 158.664062 354.929688 C 185.871094 382.128906 218.496094 395.734375 256.535156 395.734375 C 266.847656 395.734375 276.625 394.847656 285.871094 393.070312 C 295.109375 391.289062 303.816406 388.625 312 385.070312 L 334.929688 408 C 322.128906 415.109375 309.246094 420.183594 296.265625 423.207031 C 283.289062 426.222656 270.046875 427.734375 256.535156 427.734375 Z M 410.664062 337.601562 L 331.207031 258.128906 L 352.535156 236.792969 L 394.664062 278.929688 L 394.664062 257.070312 C 394.664062 219.023438 381.070312 186.398438 353.871094 159.207031 C 326.664062 132 294.046875 118.398438 256 118.398438 C 245.6875 118.398438 235.914062 119.375 226.664062 121.335938 C 217.421875 123.289062 208.710938 125.6875 200.535156 128.535156 L 177.601562 105.601562 C 190.398438 98.496094 203.289062 93.503906 216.265625 90.664062 C 229.246094 87.816406 242.496094 86.398438 256 86.398438 C 302.578125 86.398438 342.664062 103.207031 376.265625 136.792969 C 409.871094 170.398438 426.664062 210.496094 426.664062 257.070312 L 426.664062 280 L 469.335938 237.335938 L 490.128906 258.128906 Z M 410.664062 337.601562 "/>
</g>
</svg>
